<svg xmlns="http://www.w3.org/2000/svg" viewBox="0 0 23 26" width="23" height="26">
	<style>
		tspan { white-space:pre }
		.shp0 { fill: #bdbdbd } 
	</style>
	<g id="10 SHARE">
		<path id="Share" class="shp0" d="M18.39 8.63C16.27 8.63 14.54 6.92 14.54 4.82C14.54 2.71 16.27 1 18.39 1C20.52 1 22.25 2.71 22.25 4.82C22.25 6.92 20.52 8.63 18.39 8.63ZM18.39 2.55C17.13 2.55 16.1 3.56 16.1 4.82C16.1 6.06 17.13 7.08 18.39 7.08C19.65 7.08 20.68 6.06 20.68 4.82C20.68 3.56 19.65 2.55 18.39 2.55ZM4.43 17.11C2.3 17.11 0.57 15.4 0.57 13.3C0.57 11.19 2.3 9.48 4.43 9.48C6.55 9.48 8.28 11.19 8.28 13.3C8.28 15.4 6.55 17.11 4.43 17.11ZM4.43 11.03C3.16 11.03 2.14 12.05 2.14 13.3C2.14 14.55 3.16 15.56 4.43 15.56C5.69 15.56 6.71 14.55 6.71 13.3C6.71 12.05 5.69 11.03 4.43 11.03ZM18.39 25.79C16.27 25.79 14.54 24.07 14.54 21.97C14.54 19.87 16.27 18.15 18.39 18.15C20.52 18.15 22.25 19.87 22.25 21.97C22.25 24.07 20.52 25.79 18.39 25.79ZM18.39 19.7C17.13 19.7 16.1 20.72 16.1 21.97C16.1 23.22 17.13 24.24 18.39 24.24C19.65 24.24 20.68 23.22 20.68 21.97C20.68 20.72 19.65 19.7 18.39 19.7ZM15.78 21.17C15.64 21.17 15.49 21.13 15.36 21.05L6.59 15.58C6.23 15.35 6.12 14.87 6.35 14.51C6.58 14.15 7.06 14.04 7.43 14.27L16.2 19.74C16.56 19.97 16.67 20.45 16.44 20.81C16.29 21.04 16.04 21.17 15.78 21.17ZM6.95 12.4C6.68 12.4 6.42 12.26 6.27 12.01C6.06 11.64 6.18 11.17 6.56 10.96L15.42 5.87C15.79 5.65 16.27 5.78 16.48 6.15C16.7 6.52 16.57 6.99 16.2 7.21L7.34 12.3C7.22 12.37 7.08 12.4 6.95 12.4Z" />
	</g>
</svg>